<?xml version="1.0" standalone="no"?><!DOCTYPE svg PUBLIC "-//W3C//DTD SVG 1.1//EN" "http://www.w3.org/Graphics/SVG/1.1/DTD/svg11.dtd"><svg t="1526559954543" class="icon" style="" viewBox="0 0 1024 1024" version="1.1" xmlns="http://www.w3.org/2000/svg" p-id="3237" xmlns:xlink="http://www.w3.org/1999/xlink" width="200" height="200"><defs><style type="text/css"></style></defs><path d="M584.218812 406.590252c-31.975249-25.870204-70.022797-46.223764-112.969934-58.884109-7.108908-2.073218-14.233166-3.833305-21.37789-5.445012-1.744737-0.396019-3.508917-0.776689-5.288446-1.161453-7.05365-1.464351-14.147208-2.778276-21.199835-3.817955-0.537236-0.071631-1.039679-0.106424-1.557472-0.172939-6.703679-0.952698-13.380752-1.62808-20.063965-2.143826-1.729387-0.121773-3.452635-0.279363-5.176906-0.38067-7.033184-0.451278-14.049994-0.730641-21.047362-0.730641-0.73985 0-1.444908 0.020466-2.155083 0.020466-7.067976 0.056282-14.07967 0.329505-21.061688 0.811482-1.390673 0.056282-2.784416 0.156566-4.178159 0.243547-1.927909 0.157589-3.803629 0.450255-5.714142 0.657986-5.365194 0.502443-10.708899 1.004887-16.017812 1.779529-1.410116 0.208754-2.819209 0.430812-4.229325 0.675382-7.067976 1.090844-14.126742 2.388397-21.068851 3.944845-0.370437 0.066515-0.774643 0.116657-1.130753 0.223081-7.219425 1.622964-14.32424 3.564175-21.361517 5.652743-1.444908 0.416486-2.87549 0.831948-4.304026 1.278109-6.921643 2.14485-13.735839 4.476965-20.470217 7.073092-0.947582 0.364297-1.910513 0.760317-2.838651 1.125637-6.312776 2.489704-12.508895 5.135974-18.61394 8.006348-0.947582 0.415462-1.911536 0.811482-2.819209 1.278109-6.479575 3.097548-12.828167 6.39771-19.064194 9.911744-1.26276 0.705058-2.520403 1.415232-3.787256 2.140757-6.271844 3.650133-12.488429 7.437389-18.522865 11.483542-0.217964 0.137123-0.405229 0.294712-0.62831 0.430812-5.867638 3.944845-11.561313 8.179286-17.129122 12.484336-1.079588 0.830925-2.155083 1.642406-3.214205 2.493797-5.511527 4.391007-10.911514 9.006118-16.108886 13.761422-0.963954 0.883113-1.856277 1.729387-2.784416 2.611477-4.933359 4.63353-9.760295 9.405207-14.379499 14.353916-0.446162 0.481977-0.907673 0.933255-1.353834 1.420349-4.827959 5.237281-9.431813 10.68434-13.867846 16.302291-0.942465 1.160429-1.870604 2.316765-2.798742 3.548826-4.344958 5.602601-8.538467 11.357675-12.473079 17.305131-0.502443 0.744967-0.962931 1.542122-1.465374 2.301416-3.615341 5.568832-7.033184 11.307533-10.283204 17.139356-0.613984 1.069355-1.242294 2.14485-1.819438 3.25002-3.393283 6.261611-6.531763 12.691043-9.461489 19.247366-0.613984 1.38351-1.207501 2.76702-1.799996 4.14746-2.895957 6.835685-5.65786 13.730723-8.05649 20.839631-53.153594 156.688645 40.08802 323.836503 208.270441 373.34508 7.129374 2.093684 14.273075 3.857864 21.438265 5.466502 1.702782 0.400113 3.432169 0.774643 5.14109 1.140986 7.123234 1.484817 14.233166 2.783393 21.320585 3.823072 0.487094 0.066515 0.948605 0.121773 1.430582 0.172939 6.719028 0.932232 13.477966 1.606591 20.190855 2.14485 1.707898 0.137123 3.417843 0.279363 5.125741 0.38067 7.05365 0.465604 14.106276 0.725524 21.103644 0.760317 0.719384 0 1.444908-0.050142 2.149966-0.050142 7.033184-0.056282 14.049994-0.314155 21.026896-0.781806 1.410116-0.101307 2.803859-0.170892 4.213975-0.279363 7.29208-0.583285 14.512529-1.393743 21.692045-2.418073 1.430582-0.223081 2.859118-0.446162 4.311189-0.689708 7.033184-1.106194 14.029528-2.367931 20.950148-3.904936 0.411369-0.106424 0.801249-0.178055 1.186012-0.264013 7.199982-1.622964 14.309914-3.543709 21.326724-5.617951 1.465374-0.430812 2.894933-0.883113 4.365424-1.333368 6.880711-2.130524 13.674441-4.427846 20.393469-7.023974 1.004887-0.394996 2.00261-0.796132 2.987031-1.191128 6.237051-2.452865 12.382005-5.100158 18.411325-7.904017 0.98749-0.446162 1.987261-0.876973 2.955308-1.364067 6.474458-3.078105 12.783141-6.383384 19.003819-9.842159 1.297552-0.725524 2.561335-1.470491 3.839445-2.210341 6.251378-3.616364 12.473079-7.383154 18.46556-11.394515 0.264013-0.207731 0.517793-0.400113 0.816598-0.572028 5.79089-3.944845 11.398608-8.077979 16.910135-12.362562 1.089821-0.851391 2.220574-1.678222 3.321652-2.565429 5.491061-4.38589 10.835789-8.954953 16.052604-13.690814 0.948605-0.902556 1.89107-1.799996 2.839675-2.697435 4.897543-4.598738 9.648754-9.304923 14.252609-14.233166 0.481977-0.51677 0.962931-0.989537 1.470491-1.521656 4.786003-5.221932 9.370415-10.67206 13.802354-16.205077 0.962931-1.212618 1.910513-2.418073 2.859118-3.651157 4.325515-5.581112 8.483208-11.32186 12.43317-17.23964 0.521886-0.796132 0.983397-1.587148 1.500167-2.38328 3.606131-5.53711 7.003508-11.225669 10.211573-17.016559 0.629333-1.125637 1.278109-2.236947 1.89107-3.356444 3.356444-6.242168 6.494924-12.656251 9.431813-19.177781 0.608867-1.39886 1.207501-2.819209 1.794879-4.202719 2.910283-6.809079 5.65786-13.710256 8.077979-20.798698C719.110011 604.400456 677.460426 481.983359 584.218812 406.590252L584.218812 406.590252zM269.605368 563.223638c-34.113959 0-61.789275-25.784246-61.789275-57.550741 0-31.746028 27.675316-57.56609 61.789275-57.56609 34.094516 0 61.743226 25.813922 61.743226 57.56609C331.348594 537.439392 303.694767 563.223638 269.605368 563.223638L269.605368 563.223638zM269.605368 563.223638" p-id="3238"></path><path d="M651.184993 175.99434c-62.139246-33.895995-113.828488-1.333368-133.592624 29.17139l-20.119223 32.010041c-2.413979 3.817955-3.433192 7.990998-3.447519 12.117992-62.717414-16.925485-116.632347-16.773012-122.68111 1.019213-0.629333 1.835811-0.557702 3.823072-0.146333 5.880941l-1.674129-0.480954-18.578124 54.762231c7.966439-0.517793 15.962553-0.898463 24.039509-0.898463l0.014326 0c35.190477 0 70.232574 5.051039 104.101963 15.014972 42.664705 12.56927 80.803327 32.247448 113.578802 57.113789l18.579147-54.81749-1.688455-0.50142c1.617847-1.470491 2.895957-3.079128 3.529383-4.928243 5.120624-15.080463-25.798573-38.217417-72.980151-56.927547 0.801249-0.917906 1.597381-1.814322 2.266623-2.854001l19.917632-31.716352c3.707438-5.703909 24.069185-33.130561 62.6202-12.138458 1.571798 0.861624 115.105574 62.011332 202.348568 62.011332 4.284583 0 8.538467-0.156566 12.661368-0.470721l13.137205-28.825512-22.36538-19.329231C783.921109 232.403071 704.743816 205.200522 651.184993 175.99434L651.184993 175.99434zM651.184993 175.99434" p-id="3239"></path><path d="M834.153164 210.074529l40.615023-55.429427-8.701173 36.716226 48.376801-43.579541L895.090025 189.539844l63.916728-30.252001-39.289841 55.363935 31.674397-10.061147-23.436782 20.823258 71.109548-8.272407-72.785723 28.294416 27.215852 7.438413-27.913746 8.148587 56.341193 23.459295-89.649809 2.100848 20.301372 20.937868-28.281113-10.177803 2.671852 13.826913-24.364921-27.916816 20.998243 5.351891-10.324136-12.654204 38.238906-3.603061-28.541033-15.481599 30.241768-14.908548-23.403013 3.530406 10.165524-13.249769-20.478404 5.257747 22.895453-29.170366-37.893029 16.08228 8.024767-23.390733-33.350572 21.973454L834.153164 210.074529zM834.153164 210.074529" p-id="3240"></path></svg>
