<?xml version="1.0" standalone="no"?><!DOCTYPE svg PUBLIC "-//W3C//DTD SVG 1.1//EN" "http://www.w3.org/Graphics/SVG/1.1/DTD/svg11.dtd"><svg t="1590917848437" class="icon" viewBox="0 0 1024 1024" version="1.1" xmlns="http://www.w3.org/2000/svg" p-id="724" xmlns:xlink="http://www.w3.org/1999/xlink" width="200" height="200"><defs><style type="text/css"></style></defs><path d="M926.1654758 767.95310415c0 0 0 0-0.01687418 0l-255.95102445-255.95102444 255.95102445-255.95102444c0 0 0 0 0.01687418 0 2.7505286-2.7505286 4.74170857-5.97354071 6.02416406-9.39904541 3.49300223-9.36529624 1.50182227-20.33366226-6.04103824-27.87652277l-120.90513482-120.90513483c-7.5428605-7.5428605-18.49435153-9.53404046-27.87652276-6.02416406-3.4255047 1.28245468-6.64851682 3.27363547-9.4159196 6.02416406 0 0 0 0 0 0l-255.95102444 255.96789863-255.95102444-255.95102445c0 0 0 0 0 0-2.7505286-2.7505286-5.97354071-4.74170857-9.39904541-6.02416407-9.38217124-3.49300223-20.33366226-1.50182227-27.87652277 6.02416407l-120.90513482 120.90513483c-7.5428605 7.5428605-9.53404046 18.49435153-6.04103825 27.87652276 1.28245468 3.4255047 3.27363547 6.64851682 6.02416406 9.39904542 0 0 0 0 0 0l255.95102445 255.95102444-255.95102444 255.96789862c0 0 0 0-1e-8 0-2.7505286 2.7505286-4.74170857 5.97354071-6.02416406 9.39904541-3.49300223 9.36529624-1.50182227 20.33366226 6.04103824 27.87652276l120.90513483 120.90513483c7.5428605 7.5428605 18.49435153 9.53404046 27.87652277 6.04103824 3.4255047-1.28245468 6.64851682-3.27363547 9.39904541-6.02416406 0 0 0 0 0 0l255.95102444-255.95102444 255.95102444 255.95102444c0 0 0 0 0.01687418 0 2.7505286 2.7505286 5.97354071 4.74170857 9.39904542 6.02416406 9.38217124 3.49300223 20.33366226 1.50182227 27.87652276-6.04103824l120.90513482-120.90513483c7.5428605-7.5428605 9.53404046-18.49435153 6.04103824-27.87652276-1.28245468-3.4255047-3.27363547-6.64851682-6.02416406-9.39904541z" fill="#d81e06" p-id="725"></path></svg>
