<?xml version="1.0" standalone="no"?><!DOCTYPE svg PUBLIC "-//W3C//DTD SVG 1.1//EN" "http://www.w3.org/Graphics/SVG/1.1/DTD/svg11.dtd"><svg t="1526559762342" class="icon" style="" viewBox="0 0 1024 1024" version="1.1" xmlns="http://www.w3.org/2000/svg" p-id="2580" xmlns:xlink="http://www.w3.org/1999/xlink" width="200" height="200"><defs><style type="text/css"></style></defs><path d="M841.797081 516.911019c-17.942125-32.658903-56.7504-81.700623-48.420981-168.637987 7.372408-76.9502 61.027332-199.116006 28.96385-195.870857-44.80076 4.533945-137.343969 28.102807-177.574771 29.561765-79.665654 2.887709-116.544322-26.846231-193.647557-46.477216-31.283119-7.965365-101.311128-37.649968-133.048333-51.406862l0-8.664134c0-26.899595-22.50377-48.705424-50.264343-48.705424s-50.264343 21.805829-50.264343 48.705424l0 854.711573c0 26.899595 22.50377 48.706431 50.264343 48.706431s50.264343-21.806836 50.264343-48.706431L318.069289 476.664327c34.386908-5.576058 70.871758-13.443756 85.936617-11.602187 97.152653 11.877063 283.062038 68.655588 379.418742 80.128895C815.421628 549.002046 856.946108 544.485218 841.797081 516.911019z" p-id="2581" fill="#d81e06"></path></svg>
